
Complete name                    : The.Big.White.2005.avi
Format                           : AVI
File size                        : 1.37 GiB
Duration                         : 1h 44mn
Overall bit rate                 : 1 872 Kbps

Video

Format                           : MPEG-4 Visual
Codec ID/Hint                    : XviD
Duration                         : 1h 44mn
Bit rate                         : 1 413 Kbps
Width                            : 720 pixels
Height                           : 576 pixels
Display aspect ratio             : 16:9
Stream size                      : 1.03 GiB (75%)
Writing library                  : XviD 1.1.2 (UTC 2006-11-01)

Audio

Format                           : AC-3
Duration                         : 1h 44mn
Bit rate                         : 448 Kbps
Channel(s)                       : 6 channels
Channel positions                : Front: L C R, Side: L R, LFE
Sampling rate                    : 48.0 KHz
Bit depth                        : 16 bits
Stream size                      : 336 MiB (24%)


Text #1
Language                         : Danish

Text #2
Language                         : Dutch

Text #3
Language                         : Finnish

Text #4
Language                         : French

Text #5
Language                         : English

Text #6
Language                         : German

Text #7
Language                         : Italian

Text #8
Language                         : Norwegian

Text #9
Language                         : Spanish

Text #10
Language                         : Swedish